<?xml version="1.0" encoding="UTF-8"?>
<!-- Created with Inkscape (http://www.inkscape.org/) -->
<svg width="210.31mm" height="221.58mm" version="1.1" viewBox="0 0 210.31467 221.57675" xmlns="http://www.w3.org/2000/svg" xmlns:cc="http://creativecommons.org/ns#" xmlns:dc="http://purl.org/dc/elements/1.1/" xmlns:rdf="http://www.w3.org/1999/02/22-rdf-syntax-ns#">
 <metadata>
  <rdf:RDF>
   <cc:Work rdf:about="">
    <dc:format>image/svg+xml</dc:format>
    <dc:type rdf:resource="http://purl.org/dc/dcmitype/StillImage"/>
    <dc:title/>
   </cc:Work>
  </rdf:RDF>
 </metadata>
 <g fill="none" stroke="#000">
  <path d="m82.399 76.262c-17.106-39.997-33.462-64.973-44.601 14.363-11.059 38.357-39.239 80.995-5.2917 108.1 45.268 25.746 93.075 28.65 144.39 0 30.155-18.215 12.593-64.626 0-108.1-5.3704-60.598-17.818-69.89-39.31-13.607-18.395-5.9354-36.79-4.8628-55.185-0.75595z" stroke-width="5"/>
  <g stroke-width=".26458px">
   <path d="m37.798 90.625z"/>
   <path d="m37.798 90.625z"/>
   <path d="m37.798 90.625"/>
  </g>
  <g stroke-width="5">
   <path d="m49.712 95.479c4.2926-8.4715 13.556-10.315 21.916-13.363-0.057389-11.582-4.7549-23.163-13.363-34.745"/>
   <path d="m166.24 93.341c-3.5115-11.008-11.004-11.4-18.709-11.225-1.2048-14.055 10.089-21.861 16.571-32.072"/>
   <path d="m17.105 176.73-16.571-2.6727"/>
   <path d="m23.52 190.63-20.312 12.829"/>
   <path d="m188.69 186.88 19.243 5.3454"/>
   <path d="m193.5 174.06 16.571-1.6036"/>
  </g>
 </g>
 <ellipse cx="78.043" cy="120.07" rx="11.225" ry="10.156" stroke-width=".26458"/>
 <ellipse cx="132.03" cy="119.53" rx="11.225" ry="10.156" stroke="#000" stroke-width=".265"/>
 <g fill="none" stroke="#000" stroke-width="5">
  <path d="m94.711 147.73c11.596 9.432 13.761 3.1462 17.501-0.51473"/>
  <path d="m103.46 153.39 0.51473 7.721c-0.11915 12.951-5.0333 13.115-13.383 4.1178"/>
  <path d="m103.98 161.11c2.8224 15.082 6.6202 12.607 10.809 3.0884"/>
 </g>
</svg>
