<svg display="none">
      <symbol id="cat" viewBox="0 0 285.93 250">
        <title>Cat symbol</title>
        <g fill="none" stroke="#000">
        <path d="m82.399 76.262c-17.106-39.997-33.462-64.973-44.601 14.363-11.059 38.357-39.239 80.995-5.2917 108.1 45.268 25.746 93.075 28.65 144.39 0 30.155-18.215 12.593-64.626 0-108.1-5.3704-60.598-17.818-69.89-39.31-13.607-18.395-5.9354-36.79-4.8628-55.185-0.75595z" stroke-width="5"/>
        <g stroke-width=".26458px">
         <path d="m37.798 90.625z"/>
         <path d="m37.798 90.625z"/>
         <path d="m37.798 90.625"/>
        </g>
        <g stroke-width="5">
         <path d="m49.712 95.479c4.2926-8.4715 13.556-10.315 21.916-13.363-0.057389-11.582-4.7549-23.163-13.363-34.745"/>
         <path d="m166.24 93.341c-3.5115-11.008-11.004-11.4-18.709-11.225-1.2048-14.055 10.089-21.861 16.571-32.072"/>
         <path d="m17.105 176.73-16.571-2.6727"/>
         <path d="m23.52 190.63-20.312 12.829"/>
         <path d="m188.69 186.88 19.243 5.3454"/>
         <path d="m193.5 174.06 16.571-1.6036"/>
        </g>
       </g>
       <ellipse cx="78.043" cy="120.07" rx="11.225" ry="10.156" stroke-width=".26458"/>
       <ellipse cx="132.03" cy="119.53" rx="11.225" ry="10.156" stroke="#000" stroke-width=".265"/>
       <g fill="none" stroke="#000" stroke-width="5">
        <path d="m94.711 147.73c11.596 9.432 13.761 3.1462 17.501-0.51473"/>
        <path d="m103.46 153.39 0.51473 7.721c-0.11915 12.951-5.0333 13.115-13.383 4.1178"/>
        <path d="m103.98 161.11c2.8224 15.082 6.6202 12.607 10.809 3.0884"/>
       </g>
      </symbol>

      <symbol id="dog" viewBox="0 0 285.93 250">
        <title>Dog symbol</title>
        <g transform="translate(-33.215 -74.336)" stroke="#000" stroke-width="5">
        <g fill="none">
         <path d="m80.715 94.944c-21.964 25.928-30.526 56.679-9.6217 108.51 23.437 28.696 48.592 40.899 79.112 1.6036 19.592-39.849 4.3374-75.61-14.433-109.05-23.065-33.344-38.92-16.22-55.058-1.0691z"/>
         <path d="m80.715 94.944c-24.071 6.5762-52.177-1.4755-43.298 124.55"/>
         <path d="m135.77 96.013c82.224 3.7056 54.125 130.04 42.229 128.82-18.239 23.091-28.084 18.413-27.796-19.778"/>
         <path d="m37.418 219.49c3.8674 18.426 11.435 24.898 33.676-16.036"/>
        </g>
        <ellipse cx="92.208" cy="120.87" rx="5.0781" ry="6.1472"/>
        <ellipse cx="124.01" cy="121.67" rx="5.0781" ry="6.1472"/>
        <path d="m94.613 189.56c6.756-1.559 22.445-2.655 34.21 0-7.1213 23.01-28.494 13.512-34.21 0z" fill-opacity=".99048"/>
       </g>
      </symbol>

      <symbol id="mouse" viewBox="0 0 285.93 250">
        <title>Mouse symbol</title>
        <g transform="translate(-20.688 -52.682)" stroke="#000">
        <g fill="none" stroke-width="5">
         <path d="m90.872 198.11c9.3723 3.6141 15.519 14.857 34.211 0 20.396-11.656 40.095-23.684 39.556-46.505"/>
         <path d="m90.872 198.11c-19.747-9.3416-36.533-20.733-37.952-42.763-2.1369-20.474 2.4999-37.253 16.036-49.178"/>
         <path d="m164.64 151.61c0.68393-17.018 3.8759-34.371-16.036-48.643"/>
         <path d="m68.956 106.17c-21.491-1.1128-13.533-15.969-15.502-26.192"/>
         <path d="m53.454 79.977c-0.05894-14.008 3.9861-22.153 13.898-21.916 23.353-3.3106 20.049 8.4895 20.847 33.141 8.48-2.7488 16.576-6.8415 27.796 1e-6 1.0059-33.682 8.9146-32.189 16.571-35.28 23.63-5.0983 23.564 16.731 16.036 47.039"/>
         <path d="m70.559 62.605c13.434 1.7393 19.774 15.807 5.6127 39.021"/>
         <path d="m134.17 62.07c-23.531 13.709-8.5513 32.771-2.6727 36.349"/>
        </g>
        <g>
         <ellipse cx="90.337" cy="127.82" rx="5.3454" ry="4.5436" fill-opacity=".99048" stroke-width="5"/>
         <ellipse cx="123.75" cy="127.82" rx="5.3454" ry="4.5436" fill-opacity=".99048" stroke-width="5"/>
         <path d="m103.97 198.38c2.6727-2.0385 5.3454-3.1702 8.0181-0.26727-2.3177 6.4787-4.9876 6.6175-8.0181 0.26727z" stroke-width=".265"/>
        </g>
        <g fill="none" stroke-width="5">
         <path d="m62.274 181.54c9.4825 2.4089-12.27-4.8198-41.427-6.6817"/>
         <path d="m74.301 189.56c-12.655 2.9011-27.692 7.1036-38.22 14.967"/>
         <path d="m145.93 187.42c4.9724-3.4484 8.3772-7.0173 31.271-9.0872"/>
         <path d="m139.78 189.82c11.81 1.6254 30.68-1.2107 39.823 6.4145"/>
        </g>
       </g>
      </symbol>

      <symbol id="pif" viewBox="0 0 285.93 250">
        <title>Pig symbol</title>
        <g transform="translate(-28.026 -76.338)" stroke="#000" stroke-width="5">
        <g fill="none">
         <path d="m66.283 101.89c-19.699 18.848-38.135 66.25 5.8799 104.77 29.662 26.069 45.531 25.926 70.559 2.6727 47.329-49.583 23.716-80.665 5.8799-103.17-26.641-29.425-62.779-25.984-82.319-4.2763z"/>
         <path d="m80.715 90.133c-2.3074-9.546-8.3861-13.435-19.243-10.156-8.401 10.776-18.148 16.841-29.4 17.64 6.7533 12.462 15.531 15.813 25.123 15.502"/>
         <path d="m136.31 95.479c3.2072-12.829 9.9781-16.393 20.312-10.691"/>
         <path d="m156.62 84.788c11.891 16.174 17.661 15.515 24.054 16.571-7.5877 5.6717-16.585 13.616-29.238 9.1576"/>
         <path d="m88.068 190.41c18.4 20.035 31.869 10.963 40.065-0.75595 7.0095-21.589-44.859-29.111-40.065 0.75595z"/>
         <path d="m71.815 96.673c-10.098-16.969-17.451-2.375-25.702 1.8899"/>
         <path d="m143.63 100.45c2.5425-18.808 12.134-9.4221 21.545-0.75595"/>
        </g>
        <g>
         <ellipse cx="89.391" cy="123.32" rx="6.6146" ry="5.8586"/>
         <ellipse cx="124.35" cy="123.13" rx="5.3454" ry="4.5436" fill-opacity=".99048"/>
         <ellipse cx="99.408" cy="184.93" rx="1.1339" ry="2.8348"/>
         <ellipse cx="115.28" cy="185.12" rx="1.1339" ry="2.8348"/>
        </g>
       </g>
      </symbol>

      <symbol id="sheep" viewBox="0 0 250 250">
        <title>Sheep symbol</title>
        <g transform="translate(-44.292 -86.123)" stroke="#000">
        <g fill="none">
         <g stroke-width="5">
          <path d="m128.82 198.64c-15.017 13.24-18.866 22.154-46.505-1.0691-28.432-11.523-14.291-54.219-4.8108-76.439"/>
          <path d="m128.82 198.64c41.465-22.473-9.4286-90.376-1.6036-77.508"/>
          <path d="m99.424 202.39c7.8565 7.7655 10.624 1.9612 14.433-1.0691"/>
         </g>
         <path d="m99.424 202.39z" stroke-width=".26458px"/>
         <path d="m106.4 206.29-0.37798-8.3155c-2.6962 0.45348-4.9262-0.95797-6.6146-4.5357" stroke-width="5"/>
         <path d="m106.02 197.97c3.0177-0.41713 5.4168-1.6075 6.4256-4.5357" stroke-width="5"/>
        </g>
        <ellipse cx="86.863" cy="147.2" rx="4.2763" ry="3.8754" stroke-width="5"/>
        <ellipse cx="117.87" cy="147.33" rx="4.2763" ry="3.8754" stroke-width="5"/>
        <g fill="none" stroke-width="5">
         <path d="m77.508 121.14c4.989 3.4564 9.7365 5.8989 11.225-5.3454 7.0696 12.133 14.103 23.328 19.778-0.80181 0.76237 11.042 7.9892 11.464 18.709 6.1472"/>
         <path d="m75.784 125.4c-6.3414-6.7008-13.446-4.626-20.789 0.18899 11.425 14.548 17.403 11.392 20.789-0.18899z"/>
         <path d="m129.65 124.08c5.0519-3.5589 13.973-8.808 21.923 0.18899"/>
         <path d="m151.57 124.26c-5.3736 10.492-15.541 10.984-21.923-0.18899"/>
         <path d="m59.531 123.13c-5.1245-19.711 3.1615-21.821 13.985-20.6 5.5044-10.092 10.942-20.428 22.701-7.587 15.43-9.0622 25.668-9.9058 24.054 8.0181"/>
         <path d="m120.27 102.96c22.89-7.4563 24.265 3.9939 24.054 16.838"/>
         <path d="m149.3 128.04c3.7437 6.3142 3.9273 11.13-1.8899 13.418 5.3624 5.9611 12.753 11.03 6.0476 22.301 9.1472 22.128 1.9935 30.231-10.394 33.829"/>
         <path d="m143.06 197.59c-6.3854 16.618-13.457 31.81-32.695 21.734-7.1023-0.14059-15.046 7.0135-20.789-4.9137-12.012 3.2066-20.604 1.7253-19.088-13.607-22.727-7.8277-20.658-19.438-13.985-31.75-15.569-13.458-10.473-26.541 1.5119-39.499"/>
        </g>
       </g>
      </symbol>
    
    <symbol id="rabbit" viewBox="0 0 521.15 601.19">
        <title>Rabbit symbol</title>
      <g>
        <g>
          <path d="M107.14,256.9" transform="translate(-36.61 -22.49)" fill="none" stroke-width="0.26"/>
          <path d="M107.14,256.9" transform="translate(-36.61 -22.49)" fill="none" stroke-width="0.26"/>
          <path d="M107.14,256.9" transform="translate(-36.61 -22.49)" fill="none" stroke-width="0.26"/>
        </g>
        <g>
          <path d="M140.91,270.65c12.17-24,38.43-29.23,62.13-37.87-.17-32.83-6.67-136-31.07-168.84,0,0-14.27-13.23-24.7,4.84S126.21,214.06,140.91,270.65Z" transform="translate(-36.61 -22.49)" fill="none" stroke="#000" stroke-width="5"/>
          <path d="M471.22,264.59c-10-31.2-31.19-32.31-53-31.81-3.42-39.84,6-146,24.42-174.9" transform="translate(-36.61 -22.49)" fill="none" stroke="#000" stroke-width="5"/>
          <path d="M248.22,456l-47-7.58" transform="translate(-36.61 -22.49)" fill="none" stroke-width="5"/>
          <path d="M243.22,466.24l-65.29,14" transform="translate(-36.61 -22.49)" fill="none" stroke-width="5"/>
          <path d="M344.91,459.57l54.54,15.15" transform="translate(-36.61 -22.49)" fill="none" stroke-width="5"/>
          <path d="M349.9,450.59l47-4.55" transform="translate(-36.61 -22.49)" fill="none" stroke-width="5"/>
        </g>
      </g>
      <ellipse cx="166.42" cy="369.3" rx="31.82" ry="28.79"/>
      <ellipse cx="362.84" cy="369.3" rx="31.82" ry="28.79" stroke-width="0.26"/>
      <g>
        <path d="M312,415.06s-8.26,1-23,0-14.59,13.18-14.59,13.18c17.35,25.4,41.59,15.31,49.61-1.46C328.9,416.63,312,415.06,312,415.06Z" transform="translate(-36.61 -22.49)" fill="none" stroke-width="5"/>
        <path d="M299.22,444.32l1.46,21.89c-.34,36.71-14.27,37.18-37.94,11.67" transform="translate(-36.61 -22.49)" fill="none" stroke-width="5"/>
        <path d="M300.69,466.21c8,42.75,18.77,35.73,30.64,8.75" transform="translate(-36.61 -22.49)" fill="none" stroke-width="5"/>
      </g>
      <path d="M107.14,256.9" transform="translate(-36.61 -22.49)" fill="none" stroke-width="0.26"/>
      <path d="M233.57,216.18h0c52.15-11.64,104.29-14.68,156.43,2.15v-3.49S405.14,47.89,440.06,36.72,494.53,64,494.53,64s12.74,57.47,6.9,193l-.16,22.83c56.86,105.34,85.63,232,.16,283.58-145.46,81.21-281,73-409.29,0-96.22-76.83-43.12-182.87,15-278.43v-28C101.3,121.42,129,54.26,129,54.26S148.6,15.85,183.51,27s50.06,189.15,50.06,189.15" transform="translate(-36.61 -22.49)" fill="none" stroke-width="5"/>
      <path d="M473.67,264.59c14.7-56.59,4.06-183.81-6.36-201.87" transform="translate(-36.61 -22.49)" fill="none" stroke-width="5"/>
      <path d="M467.31,62.72c-10.43-18.07-24.7-4.84-24.7-4.84" transform="translate(-36.61 -22.49)" fill="none" stroke-width="5"/>
      <path d="M320.42,493.66l-1.25,26s-8.23,1-11.46,0a7,7,0,0,1-4.3-4s0,1.43-2.72,3.23-12,0-12,0l-2.15-23.31" transform="translate(-36.61 -22.49)" fill="none" stroke-width="5"/>
    </symbol>
    </svg>