<?xml version="1.0" encoding="UTF-8"?>
<!-- Created with Inkscape (http://www.inkscape.org/) -->
<svg width="160.52mm" height="155.38mm" version="1.1" viewBox="0 0 160.51863 155.37857" xmlns="http://www.w3.org/2000/svg" xmlns:cc="http://creativecommons.org/ns#" xmlns:dc="http://purl.org/dc/elements/1.1/" xmlns:rdf="http://www.w3.org/1999/02/22-rdf-syntax-ns#">
 <metadata>
  <rdf:RDF>
   <cc:Work rdf:about="">
    <dc:format>image/svg+xml</dc:format>
    <dc:type rdf:resource="http://purl.org/dc/dcmitype/StillImage"/>
    <dc:title/>
   </cc:Work>
  </rdf:RDF>
 </metadata>
 <g transform="translate(-20.688 -52.682)" stroke="#000">
  <g fill="none" stroke-width="5">
   <path d="m90.872 198.11c9.3723 3.6141 15.519 14.857 34.211 0 20.396-11.656 40.095-23.684 39.556-46.505"/>
   <path d="m90.872 198.11c-19.747-9.3416-36.533-20.733-37.952-42.763-2.1369-20.474 2.4999-37.253 16.036-49.178"/>
   <path d="m164.64 151.61c0.68393-17.018 3.8759-34.371-16.036-48.643"/>
   <path d="m68.956 106.17c-21.491-1.1128-13.533-15.969-15.502-26.192"/>
   <path d="m53.454 79.977c-0.05894-14.008 3.9861-22.153 13.898-21.916 23.353-3.3106 20.049 8.4895 20.847 33.141 8.48-2.7488 16.576-6.8415 27.796 1e-6 1.0059-33.682 8.9146-32.189 16.571-35.28 23.63-5.0983 23.564 16.731 16.036 47.039"/>
   <path d="m70.559 62.605c13.434 1.7393 19.774 15.807 5.6127 39.021"/>
   <path d="m134.17 62.07c-23.531 13.709-8.5513 32.771-2.6727 36.349"/>
  </g>
  <g>
   <ellipse cx="90.337" cy="127.82" rx="5.3454" ry="4.5436" fill-opacity=".99048" stroke-width="5"/>
   <ellipse cx="123.75" cy="127.82" rx="5.3454" ry="4.5436" fill-opacity=".99048" stroke-width="5"/>
   <path d="m103.97 198.38c2.6727-2.0385 5.3454-3.1702 8.0181-0.26727-2.3177 6.4787-4.9876 6.6175-8.0181 0.26727z" stroke-width=".265"/>
  </g>
  <g fill="none" stroke-width="5">
   <path d="m62.274 181.54c9.4825 2.4089-12.27-4.8198-41.427-6.6817"/>
   <path d="m74.301 189.56c-12.655 2.9011-27.692 7.1036-38.22 14.967"/>
   <path d="m145.93 187.42c4.9724-3.4484 8.3772-7.0173 31.271-9.0872"/>
   <path d="m139.78 189.82c11.81 1.6254 30.68-1.2107 39.823 6.4145"/>
  </g>
 </g>
</svg>
