<svg id="Layer_1" data-name="Layer 1" xmlns="http://www.w3.org/2000/svg" viewBox="0 0 521.15 601.19">
  <title>rabbit</title>
  <g>
    <g>
      <path d="M107.14,256.9" transform="translate(-36.61 -22.49)" fill="none" stroke="#000" stroke-width="0.26"/>
      <path d="M107.14,256.9" transform="translate(-36.61 -22.49)" fill="none" stroke="#000" stroke-width="0.26"/>
      <path d="M107.14,256.9" transform="translate(-36.61 -22.49)" fill="none" stroke="#000" stroke-width="0.26"/>
    </g>
    <g>
      <path d="M140.91,270.65c12.17-24,38.43-29.23,62.13-37.87-.17-32.83-6.67-136-31.07-168.84,0,0-14.27-13.23-24.7,4.84S126.21,214.06,140.91,270.65Z" transform="translate(-36.61 -22.49)" fill="none" stroke="#000" stroke-width="5"/>
      <path d="M471.22,264.59c-10-31.2-31.19-32.31-53-31.81-3.42-39.84,6-146,24.42-174.9" transform="translate(-36.61 -22.49)" fill="none" stroke="#000" stroke-width="5"/>
      <path d="M248.22,456l-47-7.58" transform="translate(-36.61 -22.49)" fill="none" stroke="#000" stroke-width="5"/>
      <path d="M243.22,466.24l-65.29,14" transform="translate(-36.61 -22.49)" fill="none" stroke="#000" stroke-width="5"/>
      <path d="M344.91,459.57l54.54,15.15" transform="translate(-36.61 -22.49)" fill="none" stroke="#000" stroke-width="5"/>
      <path d="M349.9,450.59l47-4.55" transform="translate(-36.61 -22.49)" fill="none" stroke="#000" stroke-width="5"/>
    </g>
  </g>
  <ellipse cx="166.42" cy="369.3" rx="31.82" ry="28.79"/>
  <ellipse cx="362.84" cy="369.3" rx="31.82" ry="28.79" stroke="#000" stroke-width="0.26"/>
  <g>
    <path d="M312,415.06s-8.26,1-23,0-14.59,13.18-14.59,13.18c17.35,25.4,41.59,15.31,49.61-1.46C328.9,416.63,312,415.06,312,415.06Z" transform="translate(-36.61 -22.49)" fill="none" stroke="#000" stroke-width="5"/>
    <path d="M299.22,444.32l1.46,21.89c-.34,36.71-14.27,37.18-37.94,11.67" transform="translate(-36.61 -22.49)" fill="none" stroke="#000" stroke-width="5"/>
    <path d="M300.69,466.21c8,42.75,18.77,35.73,30.64,8.75" transform="translate(-36.61 -22.49)" fill="none" stroke="#000" stroke-width="5"/>
  </g>
  <path d="M107.14,256.9" transform="translate(-36.61 -22.49)" fill="none" stroke="#000" stroke-width="0.26"/>
  <path d="M233.57,216.18h0c52.15-11.64,104.29-14.68,156.43,2.15v-3.49S405.14,47.89,440.06,36.72,494.53,64,494.53,64s12.74,57.47,6.9,193l-.16,22.83c56.86,105.34,85.63,232,.16,283.58-145.46,81.21-281,73-409.29,0-96.22-76.83-43.12-182.87,15-278.43v-28C101.3,121.42,129,54.26,129,54.26S148.6,15.85,183.51,27s50.06,189.15,50.06,189.15" transform="translate(-36.61 -22.49)" fill="none" stroke="#000" stroke-width="5"/>
  <path d="M473.67,264.59c14.7-56.59,4.06-183.81-6.36-201.87" transform="translate(-36.61 -22.49)" fill="none" stroke="#000" stroke-width="5"/>
  <path d="M467.31,62.72c-10.43-18.07-24.7-4.84-24.7-4.84" transform="translate(-36.61 -22.49)" fill="none" stroke="#000" stroke-width="5"/>
  <path d="M320.42,493.66l-1.25,26s-8.23,1-11.46,0a7,7,0,0,1-4.3-4s0,1.43-2.72,3.23-12,0-12,0l-2.15-23.31" transform="translate(-36.61 -22.49)" fill="none" stroke="#000" stroke-width="5"/>
</svg>
