<?xml version="1.0" encoding="UTF-8"?>
<!-- Created with Inkscape (http://www.inkscape.org/) -->
<svg width="115.81mm" height="138.94mm" version="1.1" viewBox="0 0 115.81357 138.93861" xmlns="http://www.w3.org/2000/svg" xmlns:cc="http://creativecommons.org/ns#" xmlns:dc="http://purl.org/dc/elements/1.1/" xmlns:rdf="http://www.w3.org/1999/02/22-rdf-syntax-ns#">
 <metadata>
  <rdf:RDF>
   <cc:Work rdf:about="">
    <dc:format>image/svg+xml</dc:format>
    <dc:type rdf:resource="http://purl.org/dc/dcmitype/StillImage"/>
    <dc:title/>
   </cc:Work>
  </rdf:RDF>
 </metadata>
 <g transform="translate(-44.292 -86.123)" stroke="#000">
  <g fill="none">
   <g stroke-width="5">
    <path d="m128.82 198.64c-15.017 13.24-18.866 22.154-46.505-1.0691-28.432-11.523-14.291-54.219-4.8108-76.439"/>
    <path d="m128.82 198.64c41.465-22.473-9.4286-90.376-1.6036-77.508"/>
    <path d="m99.424 202.39c7.8565 7.7655 10.624 1.9612 14.433-1.0691"/>
   </g>
   <path d="m99.424 202.39z" stroke-width=".26458px"/>
   <path d="m106.4 206.29-0.37798-8.3155c-2.6962 0.45348-4.9262-0.95797-6.6146-4.5357" stroke-width="5"/>
   <path d="m106.02 197.97c3.0177-0.41713 5.4168-1.6075 6.4256-4.5357" stroke-width="5"/>
  </g>
  <ellipse cx="86.863" cy="147.2" rx="4.2763" ry="3.8754" stroke-width="5"/>
  <ellipse cx="117.87" cy="147.33" rx="4.2763" ry="3.8754" stroke-width="5"/>
  <g fill="none" stroke-width="5">
   <path d="m77.508 121.14c4.989 3.4564 9.7365 5.8989 11.225-5.3454 7.0696 12.133 14.103 23.328 19.778-0.80181 0.76237 11.042 7.9892 11.464 18.709 6.1472"/>
   <path d="m75.784 125.4c-6.3414-6.7008-13.446-4.626-20.789 0.18899 11.425 14.548 17.403 11.392 20.789-0.18899z"/>
   <path d="m129.65 124.08c5.0519-3.5589 13.973-8.808 21.923 0.18899"/>
   <path d="m151.57 124.26c-5.3736 10.492-15.541 10.984-21.923-0.18899"/>
   <path d="m59.531 123.13c-5.1245-19.711 3.1615-21.821 13.985-20.6 5.5044-10.092 10.942-20.428 22.701-7.587 15.43-9.0622 25.668-9.9058 24.054 8.0181"/>
   <path d="m120.27 102.96c22.89-7.4563 24.265 3.9939 24.054 16.838"/>
   <path d="m149.3 128.04c3.7437 6.3142 3.9273 11.13-1.8899 13.418 5.3624 5.9611 12.753 11.03 6.0476 22.301 9.1472 22.128 1.9935 30.231-10.394 33.829"/>
   <path d="m143.06 197.59c-6.3854 16.618-13.457 31.81-32.695 21.734-7.1023-0.14059-15.046 7.0135-20.789-4.9137-12.012 3.2066-20.604 1.7253-19.088-13.607-22.727-7.8277-20.658-19.438-13.985-31.75-15.569-13.458-10.473-26.541 1.5119-39.499"/>
  </g>
 </g>
</svg>
